<?xml version="1.0" encoding="UTF-8"?>
<!DOCTYPE svg PUBLIC "-//W3C//DTD SVG 1.1//EN" "http://www.w3.org/Graphics/SVG/1.1/DTD/svg11.dtd">
<svg xmlns="http://www.w3.org/2000/svg" version="1.1" width="512px" height="512px" style="shape-rendering:geometricPrecision; text-rendering:geometricPrecision; image-rendering:optimizeQuality; fill-rule:evenodd; clip-rule:evenodd" xmlns:xlink="http://www.w3.org/1999/xlink">
<g><path style="opacity:1" fill="#fefffe" d="M 254.5,14.5 C 325.856,46.4501 400.189,68.6167 477.5,81C 478.126,81.7504 478.626,82.5838 479,83.5C 479.667,148.5 479.667,213.5 479,278.5C 470.615,356.158 433.115,414.991 366.5,455C 331.996,475.248 294.996,488.748 255.5,495.5C 200.95,486.384 152.283,464.551 109.5,430C 63.1943,390.226 37.3609,339.726 32,278.5C 31.3333,213.5 31.3333,148.5 32,83.5C 32.3742,82.5838 32.8742,81.7504 33.5,81C 110.417,69.1936 184.083,47.027 254.5,14.5 Z M 254.5,111.5 C 313.707,114.17 357.207,141.504 385,193.5C 411.255,257.828 399.755,314.328 350.5,363C 305.285,399.869 255.285,408.202 200.5,388C 144.309,361.811 114.975,317.645 112.5,255.5C 114.538,196.567 141.538,153.4 193.5,126C 213.032,117.199 233.366,112.365 254.5,111.5 Z"/></g>
<g><path style="opacity:1" fill="#fefffe" d="M 227.5,175.5 C 246.926,175.025 266.259,175.525 285.5,177C 286.126,177.75 286.626,178.584 287,179.5C 287.5,194.163 287.667,208.83 287.5,223.5C 302.93,223.032 318.263,223.532 333.5,225C 334.863,226.945 335.697,229.112 336,231.5C 336.667,247.5 336.667,263.5 336,279.5C 335.697,281.888 334.863,284.055 333.5,286C 318.263,287.468 302.93,287.968 287.5,287.5C 287.968,302.93 287.468,318.263 286,333.5C 285.25,334.126 284.416,334.626 283.5,335C 264.833,335.667 246.167,335.667 227.5,335C 224.617,333.411 223.117,330.911 223,327.5C 222.5,314.171 222.333,300.837 222.5,287.5C 207.403,287.967 192.403,287.467 177.5,286C 176.137,284.055 175.303,281.888 175,279.5C 174.333,263.5 174.333,247.5 175,231.5C 175.303,229.112 176.137,226.945 177.5,225C 192.403,223.533 207.403,223.033 222.5,223.5C 222.333,209.829 222.5,196.163 223,182.5C 223.53,179.415 225.03,177.082 227.5,175.5 Z"/></g>
</svg>
